<svg width="64" height="19" viewBox="0 0 64 19" fill="none" xmlns="http://www.w3.org/2000/svg">
<path d="M8 15C10.7614 15 13 12.7614 13 10C13 7.23858 10.7614 5 8 5C5.23858 5 3 7.23858 3 10C3 12.7614 5.23858 15 8 15Z" fill="#9B003A"/>
<path d="M24 15C26.7614 15 29 12.7614 29 10C29 7.23858 26.7614 5 24 5C21.2386 5 19 7.23858 19 10C19 12.7614 21.2386 15 24 15Z" fill="#FFBC01"/>
<path d="M40 15C42.7614 15 45 12.7614 45 10C45 7.23858 42.7614 5 40 5C37.2386 5 35 7.23858 35 10C35 12.7614 37.2386 15 40 15Z" fill="#00554E"/>
<path d="M56 15C58.7614 15 61 12.7614 61 10C61 7.23858 58.7614 5 56 5C53.2386 5 51 7.23858 51 10C51 12.7614 53.2386 15 56 15Z" fill="#FD6C03"/>
</svg>
